# xmcd
#
# Track frame offsets:
#	150
#	17719
#	34147
#	48438
#	61287
#	78184
#	101048
#	113852
#	128278
#	141049
#	154715
#	174840
#	193406
#
# Disc length: 2788 seconds
#
# Revision: 0
# Processed by: cddbd v1.5.2PL0 Copyright (c) Steve Scherf et al.
# Submitted via: audiograbber 1.83.01
#
DISCID=a20ae20d
DTITLE=Girls Gun - Tribute to Hank Williams (live)
DYEAR=1900
DGENRE=Country
TTITLE0=Chiseled in Stone
TTITLE1=Jambalaya
TTITLE2=MoaninThe Blues
TTITLE3=Hey Good Lookin'
TTITLE4=Mov eIt On Over
TTITLE5=So Lonesome I Could Cry
TTITLE6=Honky Tonk Blues
TTITLE7=07 Dea rJohn
TTITLE8=Cheatin' Heart
TTITLE9=My Bucket's Gotta Hole In It
TTITLE10=Rockin' Chair Money
TTITLE11=I SawThe Light
TTITLE12=Old LogTrain
EXTD=
EXTT0=
EXTT1=
EXTT2=
EXTT3=
EXTT4=
EXTT5=
EXTT6=
EXTT7=
EXTT8=
EXTT9=
EXTT10=
EXTT11=
EXTT12=
PLAYORDER=
